<svg width="394" height="159" viewBox="0 0 394 159" fill="none" xmlns="http://www.w3.org/2000/svg">
<path d="M126.504 130L87.848 40.4H110.248L144.04 119.76H130.856L165.16 40.4H185.768L146.984 130H126.504ZM178.473 130L218.409 40.4H238.889L278.953 130H257.193L224.425 50.896H232.617L199.721 130H178.473ZM198.441 110.8L203.945 95.056H250.025L255.657 110.8H198.441ZM288.249 130V40.4H308.985V113.104H353.913V130H288.249Z" fill="white"/>
<path d="M371.643 131.024C368.23 131.024 365.286 129.872 362.811 127.568C360.422 125.179 359.227 122.149 359.227 118.48C359.227 114.811 360.422 111.867 362.811 109.648C365.286 107.344 368.23 106.192 371.643 106.192C375.142 106.192 378.086 107.344 380.475 109.648C382.864 111.867 384.059 114.811 384.059 118.48C384.059 122.149 382.864 125.179 380.475 127.568C378.086 129.872 375.142 131.024 371.643 131.024Z" fill="#0046CC"/>
<path d="M16.768 79.072C13.3547 79.072 10.4107 77.92 7.936 75.616C5.54667 73.2267 4.352 70.1973 4.352 66.528C4.352 62.8587 5.54667 59.9147 7.936 57.696C10.4107 55.392 13.3547 54.24 16.768 54.24C20.2667 54.24 23.2107 55.392 25.6 57.696C27.9893 59.9147 29.184 62.8587 29.184 66.528C29.184 70.1973 27.9893 73.2267 25.6 75.616C23.2107 77.92 20.2667 79.072 16.768 79.072ZM16.768 125.024C13.3547 125.024 10.4107 123.872 7.936 121.568C5.54667 119.179 4.352 116.149 4.352 112.48C4.352 108.811 5.54667 105.867 7.936 103.648C10.4107 101.344 13.3547 100.192 16.768 100.192C20.2667 100.192 23.2107 101.344 25.6 103.648C27.9893 105.867 29.184 108.811 29.184 112.48C29.184 116.149 27.9893 119.179 25.6 121.568C23.2107 123.872 20.2667 125.024 16.768 125.024ZM53.852 148.832H34.78C40.3267 139.189 44.2947 129.504 46.684 119.776C49.1587 109.963 50.396 99.68 50.396 88.928C50.396 78.176 49.1587 67.936 46.684 58.208C44.2947 48.3947 40.3267 38.6667 34.78 29.024H53.852C59.1427 36.6187 63.1533 45.5787 65.884 55.904C68.6147 66.144 69.98 77.152 69.98 88.928C69.98 100.704 68.6147 111.712 65.884 121.952C63.1533 132.107 59.1427 141.067 53.852 148.832Z" fill="#0046CC"/>
</svg>
