<svg width="465" height="159" viewBox="0 0 465 159" fill="none" xmlns="http://www.w3.org/2000/svg">
<path d="M121.128 130L91.816 40.4H113.32L138.792 119.76H128.04L154.664 40.4H173.864L199.464 119.76H189.096L215.208 40.4H235.048L205.736 130H183.464L160.808 60.368H166.696L143.4 130H121.128ZM231.848 130L271.784 40.4H292.264L332.328 130H310.568L277.8 50.896H285.992L253.096 130H231.848ZM251.816 110.8L257.32 95.056H303.4L309.032 110.8H251.816ZM341.624 130V40.4H380.408C388.429 40.4 395.341 41.7227 401.144 44.368C406.947 46.928 411.427 50.64 414.584 55.504C417.741 60.368 419.32 66.1707 419.32 72.912C419.32 79.568 417.741 85.328 414.584 90.192C411.427 94.9707 406.947 98.64 401.144 101.2C395.341 103.76 388.429 105.04 380.408 105.04H353.144L362.36 95.952V130H341.624ZM398.584 130L376.184 97.488H398.328L420.984 130H398.584ZM362.36 98.256L353.144 88.528H379.256C385.656 88.528 390.435 87.1627 393.592 84.432C396.749 81.616 398.328 77.776 398.328 72.912C398.328 67.9627 396.749 64.1227 393.592 61.392C390.435 58.6613 385.656 57.296 379.256 57.296H353.144L362.36 47.44V98.256Z" fill="white"/>
<path d="M441.893 131.024C438.48 131.024 435.536 129.872 433.061 127.568C430.672 125.179 429.477 122.149 429.477 118.48C429.477 114.811 430.672 111.867 433.061 109.648C435.536 107.344 438.48 106.192 441.893 106.192C445.392 106.192 448.336 107.344 450.725 109.648C453.114 111.867 454.309 114.811 454.309 118.48C454.309 122.149 453.114 125.179 450.725 127.568C448.336 129.872 445.392 131.024 441.893 131.024Z" fill="#0046CC"/>
<path d="M16.768 79.072C13.3547 79.072 10.4107 77.92 7.936 75.616C5.54667 73.2267 4.352 70.1973 4.352 66.528C4.352 62.8587 5.54667 59.9147 7.936 57.696C10.4107 55.392 13.3547 54.24 16.768 54.24C20.2667 54.24 23.2107 55.392 25.6 57.696C27.9893 59.9147 29.184 62.8587 29.184 66.528C29.184 70.1973 27.9893 73.2267 25.6 75.616C23.2107 77.92 20.2667 79.072 16.768 79.072ZM16.768 125.024C13.3547 125.024 10.4107 123.872 7.936 121.568C5.54667 119.179 4.352 116.149 4.352 112.48C4.352 108.811 5.54667 105.867 7.936 103.648C10.4107 101.344 13.3547 100.192 16.768 100.192C20.2667 100.192 23.2107 101.344 25.6 103.648C27.9893 105.867 29.184 108.811 29.184 112.48C29.184 116.149 27.9893 119.179 25.6 121.568C23.2107 123.872 20.2667 125.024 16.768 125.024ZM53.852 148.832H34.78C40.3267 139.189 44.2947 129.504 46.684 119.776C49.1587 109.963 50.396 99.68 50.396 88.928C50.396 78.176 49.1587 67.936 46.684 58.208C44.2947 48.3947 40.3267 38.6667 34.78 29.024H53.852C59.1427 36.6187 63.1533 45.5787 65.884 55.904C68.6147 66.144 69.98 77.152 69.98 88.928C69.98 100.704 68.6147 111.712 65.884 121.952C63.1533 132.107 59.1427 141.067 53.852 148.832Z" fill="#0046CC"/>
</svg>
